#N canvas -5 103 738 479 10;
#X obj 196 106 comport;
#X msg 178 62 devices;
#X msg 247 74 open 2;
#X floatatom 190 161 5 0 0 0 - - -;
#X obj 191 188 > 1;
#X obj 186 221 tgl 15 0 empty empty empty 17 7 0 10 -262144 -1 -1 0
1;
#X obj 311 176 bdp;
#X msg -231 -5 devices;
#X msg -170 -5 open 2;
#X msg -172 38 close;
#X obj -231 79 comport 2 9600;
#X text -115 -6 Arduino's port number;
#X text -135 78 port can also be set here;
#X msg -316 39 100;
#X floatatom -315 0 5 0 255 0 - - -;
#X text -397 -2 0-255 range;
#X obj -315 -35 hsl 60 15 0 255 0 0 empty empty empty -2 -8 0 10 -262144
-1 -1 0 1;
#X text -264 124 comport connects to Arduino;
#X text -116 -27 comment;
#X obj 130 310 comport 2 9600;
#X msg 145 263 150;
#X floatatom 130 342 5 0 0 0 - - -;
#X connect 0 0 3 0;
#X connect 1 0 0 0;
#X connect 2 0 0 0;
#X connect 3 0 4 0;
#X connect 4 0 5 0;
#X connect 5 0 20 0;
#X connect 7 0 10 0;
#X connect 8 0 10 0;
#X connect 9 0 10 0;
#X connect 13 0 10 0;
#X connect 14 0 10 0;
#X connect 16 0 10 0;
#X connect 19 0 21 0;
#X connect 20 0 19 0;
